<svg xmlns="http://www.w3.org/2000/svg" viewBox="0 0 512 512"><path fill="#0061ff" stroke="#fff" stroke-width="2" d="M125.8 36h50.4v114.2c0 13.6-3.4 25.3-10.1 35.2S150 202.9 138 208.3s-26 8.1-41.9 8.1c-16 0-30-2.7-42.1-8.1-12-5.4-21.4-13-28.1-22.9s-10-21.6-10-35.2V36h50.4v110c0 5.5 1.3 10.4 3.8 14.8 2.5 4.3 6.1 7.7 10.6 10.1s9.6 3.7 15.4 3.7 10.9-1.2 15.4-3.7c4.5-2.4 8-5.8 10.5-10.1s3.8-9.2 3.8-14.8zm191.8 111.8c9.6-4.4 17.2-10.8 22.7-18.9 5.9-8.8 8.8-19.5 8.8-32.3 0-12.7-2.9-23.5-8.6-32.6s-13.8-16-24.1-20.8S294 36 280.2 36h-80.1v178.3h50.4v-58.8H268l32.6 58.8h54.7zm-24.4-38.9c-2.3 3.1-5.5 5.4-9.7 6.8s-9.3 2.1-15.2 2.1h-17.8V74.7h17.8c5.9 0 11 .8 15.2 2.3s7.4 3.9 9.7 7.1 3.4 7.4 3.4 12.5c0 5-1.1 9.1-3.4 12.3zm77.4 105.4V36H421v139.3h75v39z"/><path fill="#187bff" stroke="#fff" stroke-width="12" d="M256 476c-88.4 0-160-71.8-160-160.3 0 23.6 45.8 43.6 109.4 50.7 7.1 63.7 27 109.6 50.6 109.6zm53.3-160.3c0 17.7-1 34.8-2.7 50.7-15.9 1.8-32.9 2.7-50.6 2.7s-34.7-1-50.6-2.7c-1.8-15.9-2.7-33-2.7-50.7s1-34.8 2.7-50.7c15.9-1.8 32.9-2.7 50.6-2.7s34.7 1 50.6 2.7c1.8 15.9 2.7 32.9 2.7 50.7z"/><path fill="#187bff" stroke="#fff" stroke-width="12" d="M306.6 366.4c-7.1 63.7-27 109.6-50.6 109.6s-43.5-45.9-50.6-109.6c15.9 1.8 32.9 2.7 50.6 2.7s34.7-1 50.6-2.7z"/><path fill="#187bff" stroke="#fff" stroke-width="12" d="M416 315.7c0 88.5-71.6 160.3-160 160.3 23.6 0 43.5-45.9 50.6-109.6 63.6-7.1 109.4-27.1 109.4-50.7z"/><path fill="#187bff" stroke="#fff" stroke-width="12" d="M416 315.7c0 23.6-45.8 43.6-109.4 50.7 1.8-15.9 2.7-33 2.7-50.7s-1-34.8-2.7-50.7c63.6 7 109.4 27.1 109.4 50.7z"/><path fill="#187bff" stroke="#fff" stroke-width="12" d="M416 315.7c0-23.6-45.8-43.6-109.4-50.7-7-63.7-27-109.6-50.6-109.6 88.4-.1 160 71.7 160 160.3z"/><path fill="#187bff" stroke="#fff" stroke-width="12" d="M306.6 264.9c-15.9-1.8-32.9-2.7-50.6-2.7s-34.7 1-50.6 2.7c7-63.7 27-109.6 50.6-109.6s43.5 46 50.6 109.6zm-103.9 50.8c0 17.7 1 34.8 2.7 50.7C141.8 359.3 96 339.3 96 315.7s45.8-43.6 109.4-50.7c-1.8 15.9-2.7 32.9-2.7 50.7z"/><path fill="#187bff" stroke="#fff" stroke-width="12" d="M256 155.3c-23.6 0-43.5 45.9-50.6 109.6C141.8 272 96 292.1 96 315.7c0-88.6 71.6-160.4 160-160.4z"/></svg>