<svg xmlns="http://www.w3.org/2000/svg" width="100" height="78" fill="none"><g filter="url(#a)"><rect width="76" height="54" x="12" y="2" fill="url(#b)" rx="12"/><path fill="#fff" d="M34.986 24.565q-.102-1.03-.878-1.602-.776-.57-2.105-.571-.903 0-1.526.256-.622.247-.954.69-.324.443-.324 1.006-.018.468.196.818.222.35.605.605.384.247.886.435.504.178 1.074.306l1.568.376q1.142.255 2.097.681a6.4 6.4 0 0 1 1.653 1.049q.699.622 1.083 1.465.392.845.4 1.935-.008 1.602-.818 2.779-.801 1.167-2.318 1.815-1.509.64-3.64.64-2.113 0-3.681-.649-1.56-.647-2.437-1.917-.87-1.278-.913-3.162h3.572q.06.878.502 1.466.453.58 1.202.878.759.29 1.713.29.938 0 1.628-.273.7-.273 1.082-.759.384-.486.384-1.116 0-.588-.35-.989-.34-.4-1.005-.682a10 10 0 0 0-1.611-.511l-1.9-.477q-2.208-.537-3.486-1.68-1.28-1.14-1.27-3.076-.01-1.585.844-2.77.86-1.184 2.36-1.85 1.5-.664 3.41-.664 1.942 0 3.391.665 1.458.665 2.267 1.849.81 1.185.836 2.744z"/><rect width="36" height="36" x="42.33" y="10" fill="#fff" rx="18"/><rect width="36" height="36" x="42.33" y="10" stroke="#3B82F6" stroke-width="4" rx="18"/><path stroke="#3B82F6" stroke-linecap="round" stroke-linejoin="round" stroke-width="1.333" d="M60.33 34.667a6.667 6.667 0 1 0 0-13.334 6.667 6.667 0 0 0 0 13.334"/><path stroke="#3B82F6" stroke-linecap="round" stroke-linejoin="round" stroke-width="1.333" d="M60.33 21.333a9.667 9.667 0 0 0 0 13.334 9.667 9.667 0 0 0 0-13.334M53.663 28h13.334"/></g><defs><linearGradient id="b" x1="24.57" x2="75.564" y1="-6.932" y2="64.837" gradientUnits="userSpaceOnUse"><stop stop-color="#3B82F6"/><stop offset="1" stop-color="#2563EB"/></linearGradient><filter id="a" width="100" height="78" x="0" y="0" color-interpolation-filters="sRGB" filterUnits="userSpaceOnUse"><feFlood flood-opacity="0" result="BackgroundImageFix"/><feColorMatrix in="SourceAlpha" result="hardAlpha" values="0 0 0 0 0 0 0 0 0 0 0 0 0 0 0 0 0 0 127 0"/><feMorphology in="SourceAlpha" radius="4" result="effect1_dropShadow_33_3"/><feOffset dy="4"/><feGaussianBlur stdDeviation="3"/><feComposite in2="hardAlpha" operator="out"/><feColorMatrix values="0 0 0 0 0 0 0 0 0 0 0 0 0 0 0 0 0 0 0.1 0"/><feBlend in2="BackgroundImageFix" result="effect1_dropShadow_33_3"/><feColorMatrix in="SourceAlpha" result="hardAlpha" values="0 0 0 0 0 0 0 0 0 0 0 0 0 0 0 0 0 0 127 0"/><feMorphology in="SourceAlpha" radius="3" result="effect2_dropShadow_33_3"/><feOffset dy="10"/><feGaussianBlur stdDeviation="7.5"/><feComposite in2="hardAlpha" operator="out"/><feColorMatrix values="0 0 0 0 0 0 0 0 0 0 0 0 0 0 0 0 0 0 0.1 0"/><feBlend in2="effect1_dropShadow_33_3" result="effect2_dropShadow_33_3"/><feBlend in="SourceGraphic" in2="effect2_dropShadow_33_3" result="shape"/></filter></defs></svg>