<svg xmlns="http://www.w3.org/2000/svg" xmlns:xlink="http://www.w3.org/1999/xlink" viewBox="0 0 96 68.21"><defs><linearGradient id="a" x1="15.79" y1="95.33" x2="80.21" y2="4.67" gradientTransform="matrix(1, 0, 0, -1, 0, 84.11)" gradientUnits="userSpaceOnUse"><stop offset="0" stop-color="#2b7fff"/><stop offset="1" stop-color="#155dfc"/></linearGradient></defs><title>SiteScrape Logo</title><rect width="96" height="68.21" rx="15.16" style="fill:url(#a)"/><path d="M29,42.4a2.73,2.73,0,0,0-1.1-2,4.42,4.42,0,0,0-2.66-.72,5,5,0,0,0-1.93.33,2.63,2.63,0,0,0-1.21.87,2.09,2.09,0,0,0-.4,1.27,1.75,1.75,0,0,0,.24,1,2.57,2.57,0,0,0,.77.77,6.15,6.15,0,0,0,1.12.55,12,12,0,0,0,1.35.38l2,.48a13.5,13.5,0,0,1,2.65.86,8.12,8.12,0,0,1,2.09,1.32,5.65,5.65,0,0,1,1.37,1.85,5.76,5.76,0,0,1,.5,2.45,6.05,6.05,0,0,1-1,3.51,6.57,6.57,0,0,1-2.93,2.29,11.72,11.72,0,0,1-4.6.81,12,12,0,0,1-4.65-.82,6.78,6.78,0,0,1-3.07-2.42,7.23,7.23,0,0,1-1.16-4h4.51A3.47,3.47,0,0,0,21.51,53,3.52,3.52,0,0,0,23,54.14a5.9,5.9,0,0,0,2.16.37,5.59,5.59,0,0,0,2.06-.34,3.1,3.1,0,0,0,1.36-1,2.18,2.18,0,0,0,.49-1.41,1.85,1.85,0,0,0-.44-1.25,3.26,3.26,0,0,0-1.27-.86,12.1,12.1,0,0,0-2-.65l-2.4-.6a10.06,10.06,0,0,1-4.4-2.12A4.9,4.9,0,0,1,17,42.43,5.76,5.76,0,0,1,18,38.93a7.31,7.31,0,0,1,3-2.34,10.72,10.72,0,0,1,4.31-.83,10.15,10.15,0,0,1,4.28.84,6.74,6.74,0,0,1,2.87,2.33,6.2,6.2,0,0,1,1,3.47Z" transform="translate(0 -13.89)" style="fill:#fff"/><path d="M61.05,24h0A22.74,22.74,0,0,1,83.79,46.74h0A22.74,22.74,0,0,1,61.05,69.47h0A22.74,22.74,0,0,1,38.31,46.74h0A22.74,22.74,0,0,1,61.05,24Z" transform="translate(0 -13.89)" style="fill:#fff"/><path d="M61.05,24h0A22.74,22.74,0,0,1,83.79,46.74h0A22.74,22.74,0,0,1,61.05,69.47h0A22.74,22.74,0,0,1,38.31,46.74h0A22.74,22.74,0,0,1,61.05,24Z" transform="translate(0 -13.89)" style="fill:none;stroke:#2b7fff;stroke-width:4px"/><path d="M61.05,55.16a8.42,8.42,0,1,0,0-16.84h0a8.42,8.42,0,1,0,0,16.84" transform="translate(0 -13.89)" style="fill:none;stroke:#2b7fff;stroke-linecap:round;stroke-linejoin:round;stroke-width:1.3329999446868896px"/><path d="M61.05,38.32a12.21,12.21,0,0,0,0,16.84,12.21,12.21,0,0,0,0-16.84m-8.42,8.42H69.47" transform="translate(0 -13.89)" style="fill:none;stroke:#2b7fff;stroke-linecap:round;stroke-linejoin:round;stroke-width:1.3329999446868896px"/></svg>